<svg width="40" height="40" viewBox="0 0 40 40" fill="none" xmlns="http://www.w3.org/2000/svg">
<path d="M39.3635 24.1586C35.6582 22.6239 35.6582 17.3755 39.3635 15.8408C39.8893 15.6231 40.1391 15.02 39.9213 14.4942L37.9795 9.80663C37.7618 9.28086 37.1586 9.03108 36.6329 9.24885C32.9275 10.7835 29.2164 7.07241 30.7515 3.36753C30.9693 2.84175 30.7195 2.23864 30.1938 2.02086L25.5058 0.0786428C24.98 -0.139135 24.3769 0.110643 24.1591 0.63642C22.6244 4.34175 17.376 4.34175 15.8413 0.63642C15.6236 0.110643 15.0204 -0.139135 14.4947 0.0786428L9.80668 2.02042C9.2809 2.2382 9.03112 2.84131 9.2489 3.36708C10.7836 7.07241 7.07246 10.7835 3.36713 9.24885C2.84135 9.03108 2.23824 9.28086 2.02046 9.80663L0.0786886 14.4942C-0.139089 15.02 0.110689 15.6231 0.636466 15.8408C4.34179 17.3755 4.34179 22.6239 0.636466 24.1586C0.110689 24.3764 -0.139089 24.9795 0.0786886 25.5053L2.02046 30.1928C2.23824 30.7186 2.84135 30.9684 3.36713 30.7506C7.07246 29.2159 10.7836 32.927 9.24846 36.6324C9.03068 37.1582 9.28046 37.7613 9.80623 37.979L14.4938 39.9208C15.0196 40.1386 15.6227 39.8888 15.8404 39.363C17.3751 35.6577 22.6236 35.6577 24.1582 39.363C24.376 39.8888 24.9791 40.1386 25.5049 39.9208L30.1924 37.979C30.7182 37.7613 30.968 37.1582 30.7502 36.6324C29.2155 32.927 32.9266 29.2159 36.632 30.7511C37.1578 30.9688 37.7609 30.719 37.9786 30.1933L39.9204 25.5057C40.1391 24.9795 39.8893 24.3768 39.3635 24.1586ZM20 28.4675C15.3236 28.4675 11.5325 24.6764 11.5325 20C11.5325 15.3235 15.3236 11.5324 20 11.5324C24.6764 11.5324 28.4675 15.3235 28.4675 20C28.4675 24.6764 24.6764 28.4675 20 28.4675Z" fill="white"/>
</svg>
